<svg width="182" height="184" viewBox="0 0 182 184" fill="none" xmlns="http://www.w3.org/2000/svg">
<path d="M14.8094 0H152.771C159.898 3.03648 163.423 7.11604 167.424 17.6512C172.3 18.5545 181.86 40.8454 182 44.0157V151.529C180.635 161.905 179.029 167.236 174.985 176.063C172.24 180.644 170.628 182.446 167.58 184H14.8094C6.03781 176.299 4.18721 172.771 1.28169 159.562L0 125.553V31.749C1.09019 13.5158 4.13734 6.32152 14.8094 0Z" fill="#D9D9D9"/>
<path d="M6 124.365C9.55092 138.204 12.5505 142.907 19.833 146.624H150.882C155.128 143.367 157.966 140.277 159.846 136.506M6 124.365V36.6784C7.01831 19.6344 9.86454 12.9092 19.833 7H148.698C155.868 10.0572 159.136 14.2454 163.259 25.8863V118.294C162.995 126.369 162.124 131.937 159.846 136.506M6 124.365L7.19718 156.156C9.91113 168.503 11.6397 171.801 19.833 179H162.531C165.378 177.547 166.883 175.863 169.448 171.58M159.846 136.506L169.448 171.58M169.448 171.58C173.225 163.33 174.725 158.346 176 148.647V48.1451C175.869 45.1816 167.813 24.0327 163.259 23.1882" stroke="black" stroke-width="4"/>
</svg>
