<svg width="182" height="184" viewBox="0 0 182 184" fill="none" xmlns="http://www.w3.org/2000/svg">
<path d="M14.8094 0H152.771C159.898 3.03648 163.423 7.11604 167.424 17.6512C172.3 18.5545 181.86 40.8454 182 44.0157V151.529C180.635 161.905 179.029 167.236 174.985 176.063C172.24 180.644 170.628 182.446 167.58 184H14.8094C6.03781 176.299 4.18721 172.771 1.28169 159.562L0 125.553V31.749C1.09019 13.5158 4.13734 6.32152 14.8094 0Z" fill="#D9D9D9"/>
<path d="M6 124.365C9.55092 138.204 12.5505 142.907 19.833 146.624H150.882C155.128 143.367 157.966 140.277 159.846 136.506M6 124.365V36.6784C7.01831 19.6344 9.86454 12.9092 19.833 7H148.698C155.868 10.0572 159.136 14.2454 163.259 25.8863V118.294C162.995 126.369 162.124 131.937 159.846 136.506M6 124.365L7.19718 156.156C9.91113 168.503 11.6397 171.801 19.833 179H162.531C165.378 177.547 166.883 175.863 169.448 171.58M159.846 136.506L169.448 171.58M169.448 171.58C173.225 163.33 174.725 158.346 176 148.647V48.1451C175.869 45.1816 167.813 24.0327 163.259 23.1882" stroke="black" stroke-width="4"/>
<path d="M46.3014 90V66.96H67.5174V71.216H50.5574V76.336H64.1894V80.624H50.5574V85.744H67.5174V90H46.3014ZM75.0894 90C74.2788 90 73.5321 89.7973 72.8494 89.392C72.1881 88.9867 71.6548 88.4533 71.2494 87.792C70.8441 87.1093 70.6414 86.3627 70.6414 85.552V83.792H74.8654V85.36C74.8654 85.4667 74.8974 85.5627 74.9614 85.648C75.0468 85.712 75.1428 85.744 75.2494 85.744H89.0414C89.1481 85.744 89.2334 85.712 89.2974 85.648C89.3828 85.5627 89.4254 85.4667 89.4254 85.36V80.976C89.4254 80.8693 89.3828 80.784 89.2974 80.72C89.2334 80.656 89.1481 80.624 89.0414 80.624H75.0894C74.2788 80.624 73.5321 80.4213 72.8494 80.016C72.1881 79.6107 71.6548 79.0773 71.2494 78.416C70.8441 77.7333 70.6414 76.976 70.6414 76.144V71.408C70.6414 70.5973 70.8441 69.8613 71.2494 69.2C71.6548 68.5173 72.1881 67.9733 72.8494 67.568C73.5321 67.1627 74.2788 66.96 75.0894 66.96H89.2334C90.0441 66.96 90.7801 67.1627 91.4414 67.568C92.1241 67.9733 92.6681 68.5173 93.0734 69.2C93.4788 69.8613 93.6814 70.5973 93.6814 71.408V73.168H89.4254V71.6C89.4254 71.4933 89.3828 71.408 89.2974 71.344C89.2334 71.2587 89.1481 71.216 89.0414 71.216H75.2494C75.1428 71.216 75.0468 71.2587 74.9614 71.344C74.8974 71.408 74.8654 71.4933 74.8654 71.6V75.984C74.8654 76.0907 74.8974 76.176 74.9614 76.24C75.0468 76.304 75.1428 76.336 75.2494 76.336H89.2334C90.0441 76.336 90.7801 76.5387 91.4414 76.944C92.1241 77.3493 92.6681 77.8933 93.0734 78.576C93.4788 79.2373 93.6814 79.984 93.6814 80.816V85.552C93.6814 86.3627 93.4788 87.1093 93.0734 87.792C92.6681 88.4533 92.1241 88.9867 91.4414 89.392C90.7801 89.7973 90.0441 90 89.2334 90H75.0894ZM101.623 90C100.812 90 100.066 89.7973 99.3829 89.392C98.7216 88.9867 98.1883 88.4533 97.7829 87.792C97.3776 87.1093 97.1749 86.3627 97.1749 85.552V71.408C97.1749 70.5973 97.3776 69.8613 97.7829 69.2C98.1883 68.5173 98.7216 67.9733 99.3829 67.568C100.066 67.1627 100.812 66.96 101.623 66.96H120.151V71.216H102.519C102.178 71.216 101.9 71.312 101.687 71.504C101.495 71.696 101.399 71.9733 101.399 72.336V84.624C101.399 84.9653 101.495 85.2427 101.687 85.456C101.9 85.648 102.178 85.744 102.519 85.744H120.151V90H101.623Z" fill="black"/>
</svg>
