<svg width="522" height="251" viewBox="0 0 522 251" fill="none" xmlns="http://www.w3.org/2000/svg">
<path d="M94.9508 139H178.334C182.356 140.695 184.48 142.934 186.713 148.35C189.66 148.89 195.915 163.418 196 165.314V229.588C195.175 235.791 194.205 238.978 191.76 244.255C190.101 246.994 189.127 248.071 187.285 249H94.9508C89.6492 244.396 88.5307 242.287 86.7746 234.391L86 214.059V157.98C86.6589 147.08 88.5006 142.779 94.9508 139Z" fill="#D9D9D9"/>
<path d="M90 213.235C92.0888 221.281 93.8533 224.016 98.137 226.176H175.225C177.722 224.283 179.392 222.486 180.498 220.294M90 213.235V162.255C90.599 152.346 92.2733 148.436 98.137 145H173.94C178.158 146.777 180.08 149.212 182.505 155.98V209.706C182.35 214.401 181.838 217.638 180.498 220.294M90 213.235L90.7042 231.719C92.3007 238.897 93.3175 240.814 98.137 245H182.077C183.752 244.155 184.637 243.176 186.146 240.686M180.498 220.294L186.146 240.686M186.146 240.686C188.368 235.889 189.25 232.992 190 227.353V168.922C189.923 167.199 185.184 154.903 182.505 154.412" stroke="black" stroke-width="4"/>
<path d="M124.206 199.562V176.554H142.766C143.577 176.554 144.324 176.757 145.006 177.162C145.689 177.568 146.233 178.112 146.638 178.794C147.044 179.456 147.246 180.192 147.246 181.002V187.21C147.246 188.021 147.044 188.768 146.638 189.45C146.233 190.133 145.689 190.677 145.006 191.082C144.324 191.466 143.577 191.658 142.766 191.658L128.43 191.69V199.562H124.206ZM128.814 187.402H142.574C142.681 187.402 142.777 187.37 142.862 187.306C142.948 187.242 142.99 187.157 142.99 187.05V181.162C142.99 181.056 142.948 180.97 142.862 180.906C142.777 180.821 142.681 180.778 142.574 180.778H128.814C128.708 180.778 128.612 180.821 128.526 180.906C128.462 180.97 128.43 181.056 128.43 181.162V187.05C128.43 187.157 128.462 187.242 128.526 187.306C128.612 187.37 128.708 187.402 128.814 187.402Z" fill="black"/>
<path d="M269.5 219.5L269.5 156C271.734 147.17 277.545 141.168 288.5 138H358V20C364.162 8.80456 373.337 2.99367 385.5 0H492.5C506.811 3.31912 512.857 11.7496 521.798 24.2177L522 24.5V226.324C517.951 237.507 515.774 244.629 505.209 248.672C501.38 250.224 499.004 250.37 494.36 251H287C278.401 248.678 273.859 240.78 269.5 232.377V219.5Z" fill="#D9D9D9"/>
<path d="M275 215.758C279.647 223.677 283.062 226.502 290.676 227.95H484.451L490.548 225.338M275 215.758V156.972C277.086 148.713 280.449 145.565 290.676 142.602H363.832V21.5471C369.585 11.0762 374.684 7.79993 386.04 5H484.451L488.371 6.30635M275 215.758L275.435 233.176C279.505 241.035 282.649 243.197 290.676 245.368H489.128C493.464 244.779 495.682 244.643 499.257 243.191M490.548 225.338C497.416 222.903 499.692 216.193 500.999 207.92C502.305 199.646 500.999 21.5471 500.999 21.5471C499.255 14.2358 497.42 10.4003 488.371 6.30635M490.548 225.338L499.257 243.191M499.257 243.191C509.12 239.41 511.152 232.749 514.933 222.29V25.9016C506.481 14.0954 501.831 9.43405 488.371 6.30635" stroke="black" stroke-width="4"/>
<path d="M327.2 200V176.96H348.416V181.216H331.456V186.336H345.088V190.624H331.456V195.744H348.416V200H327.2ZM351.636 200V176.96H356.276L370.42 193.792V176.96H374.676V200H370.036L355.86 183.136V200H351.636ZM386.517 200V181.216H377.109V176.96H400.149V181.216H390.773V200H386.517ZM402.606 200V176.96H423.822V181.216H406.862V186.336H420.494V190.624H406.862V195.744H423.822V200H402.606ZM445.41 200L438.466 191.712H444.002L450.018 198.816V200H445.41ZM427.042 200V176.992H445.602C446.413 176.992 447.159 177.195 447.842 177.6C448.525 178.005 449.069 178.549 449.474 179.232C449.879 179.893 450.082 180.629 450.082 181.44V187.648C450.082 188.459 449.879 189.205 449.474 189.888C449.069 190.571 448.525 191.115 447.842 191.52C447.159 191.904 446.413 192.096 445.602 192.096L431.266 192.128V200H427.042ZM431.65 187.84H445.41C445.517 187.84 445.613 187.808 445.698 187.744C445.783 187.68 445.826 187.595 445.826 187.488V181.6C445.826 181.493 445.783 181.408 445.698 181.344C445.613 181.259 445.517 181.216 445.41 181.216H431.65C431.543 181.216 431.447 181.259 431.362 181.344C431.298 181.408 431.266 181.493 431.266 181.6V187.488C431.266 187.595 431.298 187.68 431.362 187.744C431.447 187.808 431.543 187.84 431.65 187.84Z" fill="black"/>
<path d="M4.5 24.5C8.04482 21.3349 10.5114 20.8427 15.1882 19H143.176H316.188C322.331 19.6376 325.591 20.8381 330.859 25.2951C337.947 30.6419 341.293 34.5575 343 38.4098V99.2623C340.67 104.113 339.218 107.037 334.5 110.5C331.91 112.8 329.88 113.595 325.8 115L16 115C13.6158 114.662 10.2959 114.374 7.5 112.5C4.06631 109.727 1.04108 107.871 5.96046e-08 104.5L0 35C1.17152 31.2431 1.30262 27.6555 4.5 24.5Z" fill="#D9D9D9"/>
<path d="M15.4384 23.6523C8.31805 26.5804 5.61224 29.0953 4 35.7443V84.439C7.42175 89.4617 9.8328 91.3263 15.4384 91.9557H319.699C319.699 91.9557 321.496 92.1191 323.62 89.668C325.745 87.2169 326.562 84.439 326.562 84.439V34.1103C324.001 29.4044 321.515 27.0884 315.45 23.6523H15.4384Z" stroke="black" stroke-width="4"/>
<path d="M4 83.4599V101.434C7.27067 105.995 9.7793 107.607 15.1115 109.278H322.313C328.776 107.471 331.563 105.806 334.732 101.434C336.505 98.3503 337.19 96.0117 338 90.9765V39.3405C331.677 30.1848 326.873 26.7628 316.104 23" stroke="black" stroke-width="4"/>
<path d="M323.294 88.3613L331.464 104.702" stroke="black" stroke-width="4"/>
<path d="M106.558 68.916C105.748 68.916 105.001 68.7133 104.318 68.308C103.657 67.9027 103.124 67.3693 102.718 66.708C102.313 66.0253 102.11 65.2787 102.11 64.468V62.708H106.334V64.276C106.334 64.3827 106.366 64.4787 106.43 64.564C106.516 64.628 106.612 64.66 106.718 64.66H120.51C120.617 64.66 120.702 64.628 120.766 64.564C120.852 64.4787 120.894 64.3827 120.894 64.276V59.892C120.894 59.7853 120.852 59.7 120.766 59.636C120.702 59.572 120.617 59.54 120.51 59.54H106.558C105.748 59.54 105.001 59.3373 104.318 58.932C103.657 58.5267 103.124 57.9933 102.718 57.332C102.313 56.6493 102.11 55.892 102.11 55.06V50.324C102.11 49.5133 102.313 48.7773 102.718 48.116C103.124 47.4333 103.657 46.8893 104.318 46.484C105.001 46.0787 105.748 45.876 106.558 45.876H120.702C121.513 45.876 122.249 46.0787 122.91 46.484C123.593 46.8893 124.137 47.4333 124.542 48.116C124.948 48.7773 125.15 49.5133 125.15 50.324V52.084H120.894V50.516C120.894 50.4093 120.852 50.324 120.766 50.26C120.702 50.1747 120.617 50.132 120.51 50.132H106.718C106.612 50.132 106.516 50.1747 106.43 50.26C106.366 50.324 106.334 50.4093 106.334 50.516V54.9C106.334 55.0067 106.366 55.092 106.43 55.156C106.516 55.22 106.612 55.252 106.718 55.252H120.702C121.513 55.252 122.249 55.4547 122.91 55.86C123.593 56.2653 124.137 56.8093 124.542 57.492C124.948 58.1533 125.15 58.9 125.15 59.732V64.468C125.15 65.2787 124.948 66.0253 124.542 66.708C124.137 67.3693 123.593 67.9027 122.91 68.308C122.249 68.7133 121.513 68.916 120.702 68.916H106.558ZM128.644 68.916V45.908H147.204C148.014 45.908 148.761 46.1107 149.444 46.516C150.126 46.9213 150.67 47.4653 151.076 48.148C151.481 48.8093 151.684 49.5453 151.684 50.356V56.564C151.684 57.3747 151.481 58.1213 151.076 58.804C150.67 59.4867 150.126 60.0307 149.444 60.436C148.761 60.82 148.014 61.012 147.204 61.012L132.868 61.044V68.916H128.644ZM133.252 56.756H147.012C147.118 56.756 147.214 56.724 147.3 56.66C147.385 56.596 147.428 56.5107 147.428 56.404V50.516C147.428 50.4093 147.385 50.324 147.3 50.26C147.214 50.1747 147.118 50.132 147.012 50.132H133.252C133.145 50.132 133.049 50.1747 132.964 50.26C132.9 50.324 132.868 50.4093 132.868 50.516V56.404C132.868 56.5107 132.9 56.596 132.964 56.66C133.049 56.724 133.145 56.756 133.252 56.756ZM154.114 68.916V50.324C154.114 49.5133 154.317 48.7773 154.722 48.116C155.127 47.4333 155.661 46.8893 156.322 46.484C157.005 46.0787 157.751 45.876 158.562 45.876H172.674C173.485 45.876 174.231 46.0787 174.914 46.484C175.597 46.8893 176.141 47.4333 176.546 48.116C176.951 48.7773 177.154 49.5133 177.154 50.324V68.916H172.898V61.172H158.338V68.916H154.114ZM158.338 56.948H172.898V50.516C172.898 50.4093 172.855 50.324 172.77 50.26C172.685 50.1747 172.589 50.132 172.482 50.132H158.722C158.615 50.132 158.519 50.1747 158.434 50.26C158.37 50.324 158.338 50.4093 158.338 50.516V56.948ZM185.248 68.916C184.437 68.916 183.691 68.7133 183.008 68.308C182.347 67.9027 181.813 67.3693 181.408 66.708C181.003 66.0253 180.8 65.2787 180.8 64.468V50.324C180.8 49.5133 181.003 48.7773 181.408 48.116C181.813 47.4333 182.347 46.8893 183.008 46.484C183.691 46.0787 184.437 45.876 185.248 45.876H203.776V50.132H186.144C185.803 50.132 185.525 50.228 185.312 50.42C185.12 50.612 185.024 50.8893 185.024 51.252V63.54C185.024 63.8813 185.12 64.1587 185.312 64.372C185.525 64.564 185.803 64.66 186.144 64.66H203.776V68.916H185.248ZM207.177 68.916V45.876H228.393V50.132H211.433V55.252H225.065V59.54H211.433V64.66H228.393V68.916H207.177Z" fill="black"/>
</svg>
