<svg width="518" height="194" viewBox="0 0 518 194" fill="none" xmlns="http://www.w3.org/2000/svg">
<path d="M366.281 102H491.15C497.374 103.465 500.563 105.415 504.031 110.28C508.444 110.732 517.479 122.423 517.606 124.008V177.765C516.37 182.952 514.917 185.618 511.256 190.031C508.771 192.322 507.313 193.223 504.554 194H366.281C358.342 190.149 356.667 188.385 354.037 181.781L352.877 164.776V117.875C353.864 108.758 356.622 105.161 366.281 102Z" fill="white"/>
<path d="M357.629 161.91C360.834 168.567 363.542 170.829 370.115 172.617H488.407C492.24 171.051 494.802 169.564 496.499 167.75M357.629 161.91V119.731C358.548 111.532 361.117 108.298 370.115 105.455H486.436C492.908 106.926 495.857 108.94 499.579 114.54V158.99C499.341 162.874 498.555 165.553 496.499 167.75M357.629 161.91L358.71 177.203C361.159 183.142 362.72 184.728 370.115 188.191H498.922C501.492 187.492 502.851 186.682 505.166 184.622M496.499 167.75L505.166 184.622M505.166 184.622C508.575 180.653 509.929 178.256 511.08 173.591V125.247C510.962 123.821 503.69 113.648 499.579 113.242" stroke="black" stroke-width="4"/>
<path d="M415.302 152.434V129.394H433.862C434.673 129.394 435.42 129.596 436.102 130.002C436.785 130.407 437.329 130.951 437.734 131.634C438.14 132.295 438.342 133.031 438.342 133.842V147.986C438.342 148.796 438.14 149.543 437.734 150.226C437.329 150.887 436.785 151.42 436.102 151.826C435.42 152.231 434.673 152.434 433.862 152.434H415.302ZM419.878 148.178H433.67C433.777 148.178 433.873 148.146 433.958 148.082C434.044 147.996 434.086 147.9 434.086 147.794V134.034C434.086 133.927 434.044 133.842 433.958 133.778C433.873 133.692 433.777 133.65 433.67 133.65H419.878C419.772 133.65 419.676 133.692 419.59 133.778C419.526 133.842 419.494 133.927 419.494 134.034V147.794C419.494 147.9 419.526 147.996 419.59 148.082C419.676 148.146 419.772 148.178 419.878 148.178Z" fill="black"/>
<path d="M183.891 0H307.928C314.109 1.4806 317.277 3.45186 320.723 8.37C325.107 8.82658 334.081 20.6447 334.207 22.2471V76.5882C332.979 81.8324 331.536 84.5271 327.9 88.9882C325.431 91.3037 323.983 92.2146 321.242 93H183.891C176.005 89.1074 174.341 87.3244 171.728 80.6484L170.576 63.4588V16.0471C171.556 6.83137 174.296 3.19511 183.891 0Z" fill="white"/>
<path d="M175.021 61.9375C178.227 68.5946 180.934 70.8566 187.508 72.6445H305.8C309.632 71.0778 312.194 69.5915 313.891 67.7777M175.021 61.9375V19.7584C175.941 11.5598 178.51 8.3249 187.508 5.48242H303.828C310.301 6.95299 313.25 8.96764 316.972 14.5671V59.0174C316.734 62.9016 315.948 65.58 313.891 67.7777M175.021 61.9375L176.102 77.23C178.552 83.1691 180.112 84.7554 187.508 88.2183H316.315C318.885 87.5196 320.243 86.7092 322.558 84.6493M313.891 67.7777L322.558 84.6493M322.558 84.6493C325.968 80.6806 327.322 78.2833 328.473 73.6179V25.2742C328.355 23.8486 321.083 13.6755 316.972 13.2693" stroke="black" stroke-width="4"/>
<path d="M234.827 52.459L226.443 29.419H230.923L236.491 44.619L242.059 29.419H246.187L251.755 44.619L257.291 29.419H261.803L253.419 52.459H250.091L244.107 36.139L238.155 52.459H234.827Z" fill="black"/>
<path d="M13.6702 101H137.707C143.889 102.481 147.057 104.452 150.502 109.37C154.886 109.827 163.86 121.645 163.986 123.247V177.588C162.758 182.832 161.315 185.527 157.679 189.988C155.211 192.304 153.762 193.215 151.022 194H13.6702C5.78387 190.107 4.12005 188.324 1.5078 181.648L0.355469 164.459V117.047C1.33562 107.831 4.07522 104.195 13.6702 101Z" fill="white"/>
<path d="M4.6875 161.084C7.89275 167.741 10.6004 170.003 17.1739 171.791H135.466C139.298 170.224 141.86 168.738 143.557 166.924M4.6875 161.084V118.905C5.60668 110.706 8.17585 107.471 17.1739 104.629H133.495C139.967 106.099 142.916 108.114 146.638 113.714V158.164C146.4 162.048 145.614 164.726 143.557 166.924M4.6875 161.084L5.76814 176.376C8.2179 182.316 9.77821 183.902 17.1739 187.365H145.981C148.551 186.666 149.909 185.856 152.224 183.796M143.557 166.924L152.224 183.796M152.224 183.796C155.634 179.827 156.988 177.43 158.139 172.764V124.421C158.021 122.995 150.749 112.822 146.638 112.416" stroke="black" stroke-width="4"/>
<path d="M62.3296 151.604V133.012C62.3296 132.201 62.5323 131.465 62.9376 130.804C63.3429 130.121 63.8763 129.577 64.5376 129.172C65.2203 128.766 65.9669 128.564 66.7776 128.564H80.8896C81.7003 128.564 82.4469 128.766 83.1296 129.172C83.8123 129.577 84.3563 130.121 84.7616 130.804C85.1669 131.465 85.3696 132.201 85.3696 133.012V151.604H81.1136V143.86H66.5536V151.604H62.3296ZM66.5536 139.636H81.1136V133.204C81.1136 133.097 81.0709 133.012 80.9856 132.948C80.9003 132.862 80.8043 132.82 80.6976 132.82H66.9376C66.8309 132.82 66.7349 132.862 66.6496 132.948C66.5856 133.012 66.5536 133.097 66.5536 133.204V139.636Z" fill="black"/>
<path d="M189.47 102H314.34C320.563 103.465 323.752 105.415 327.221 110.28C331.634 110.732 340.668 122.423 340.795 124.008V177.765C339.559 182.952 338.106 185.618 334.446 190.031C331.961 192.322 330.503 193.223 327.744 194H189.47C181.531 190.149 179.856 188.385 177.226 181.781L176.066 164.776V117.875C177.053 108.758 179.811 105.161 189.47 102Z" fill="white"/>
<path d="M181.156 161.91C184.362 168.567 187.069 170.829 193.643 172.617H311.935C315.767 171.051 318.329 169.564 320.026 167.75M181.156 161.91V119.731C182.075 111.532 184.645 108.298 193.643 105.455H309.963C316.436 106.926 319.385 108.94 323.107 114.54V158.99C322.869 162.874 322.082 165.553 320.026 167.75M181.156 161.91L182.237 177.203C184.687 183.142 186.247 184.728 193.643 188.191H322.45C325.02 187.492 326.378 186.682 328.693 184.622M320.026 167.75L328.693 184.622M328.693 184.622C332.103 180.653 333.456 178.256 334.607 173.591V125.247C334.489 123.821 327.218 113.648 323.107 113.242" stroke="black" stroke-width="4"/>
<path d="M243.243 152.434C242.432 152.434 241.685 152.231 241.003 151.826C240.341 151.42 239.808 150.887 239.403 150.226C238.997 149.543 238.795 148.796 238.795 147.986V146.226H243.019V147.794C243.019 147.9 243.051 147.996 243.115 148.082C243.2 148.146 243.296 148.178 243.403 148.178H257.195C257.301 148.178 257.387 148.146 257.451 148.082C257.536 147.996 257.579 147.9 257.579 147.794V143.41C257.579 143.303 257.536 143.218 257.451 143.154C257.387 143.09 257.301 143.058 257.195 143.058H243.243C242.432 143.058 241.685 142.855 241.003 142.45C240.341 142.044 239.808 141.511 239.403 140.85C238.997 140.167 238.795 139.41 238.795 138.578V133.842C238.795 133.031 238.997 132.295 239.403 131.634C239.808 130.951 240.341 130.407 241.003 130.002C241.685 129.596 242.432 129.394 243.243 129.394H257.387C258.197 129.394 258.933 129.596 259.595 130.002C260.277 130.407 260.821 130.951 261.227 131.634C261.632 132.295 261.835 133.031 261.835 133.842V135.602H257.579V134.034C257.579 133.927 257.536 133.842 257.451 133.778C257.387 133.692 257.301 133.65 257.195 133.65H243.403C243.296 133.65 243.2 133.692 243.115 133.778C243.051 133.842 243.019 133.927 243.019 134.034V138.418C243.019 138.524 243.051 138.61 243.115 138.674C243.2 138.738 243.296 138.77 243.403 138.77H257.387C258.197 138.77 258.933 138.972 259.595 139.378C260.277 139.783 260.821 140.327 261.227 141.01C261.632 141.671 261.835 142.418 261.835 143.25V147.986C261.835 148.796 261.632 149.543 261.227 150.226C260.821 150.887 260.277 151.42 259.595 151.826C258.933 152.231 258.197 152.434 257.387 152.434H243.243Z" fill="black"/>
</svg>
